# xmcd CD database file
#
# Track frame offsets:
#	150
#	18720
#	40946
#	62529
#	75891
#	88011
#	99633
#	117599
#	139970
#	150956
#	165232
#	184609
#	199403
#	215415
#	227952
#	248275
#	264689
#	277603
#	297558
#	309399
#
# Disc length: 4397 seconds
#
# Revision: 0
# Processed by: cddbd v1.5.1PL0 Copyright (c) Steve Scherf et al.
# Submitted via: CDex 1.51
#
DISCID=0d112b14
DTITLE=Various Artist - Eklektikos
DYEAR=2004
DGENRE=Country
TTITLE0=Rodney Crowell - Earthbound
TTITLE1=Damien Rice - Volcano
TTITLE2=The Holmes Brothers - I'm So Lonesome I Could Cry
TTITLE3=Rufus Wainwright - Pretty Things
TTITLE4=Delbert McClinton - Blues About You Baby
TTITLE5=Rosanne Cash - Will You Remmber Me
TTITLE6=Grupo Fantasma - Cansado
TTITLE7=Dave Alvin - Blackjack David
TTITLE8=Graham Nash - Our House
TTITLE9=The Flatlanders - Eggs of Your Chickens
TTITLE10=The Gourds - Do 4 U
TTITLE11=Sam Phillips - One Day Late
TTITLE12=Terry Allen - Rainy Day
TTITLE13=Robinella and the CC Stringband - Tennessee Saturday Night
TTITLE14=Ozomatli - Believe
TTITLE15=Bruce Robison and Kelly Willis - Travelin' Soldier
TTITLE16=The Thrills - Say It Ain't So
TTITLE17=Slaid Cleaves - Won't Get Fooled Again
TTITLE18=Sinikithemba Choir - Sellyaduma Izulu
TTITLE19=Los Lonely Boys - Velvet Sky
EXTD=YEAR: 2004
EXTT0=
EXTT1=
EXTT2=
EXTT3=
EXTT4=
EXTT5=
EXTT6=
EXTT7=
EXTT8=
EXTT9=
EXTT10=
EXTT11=
EXTT12=
EXTT13=
EXTT14=
EXTT15=
EXTT16=
EXTT17=
EXTT18=
EXTT19=
PLAYORDER=
